# xmcd
#
# Track frame offsets:
#	150
#	27108
#	56839
#	82750
#	107166
#	120426
#	137107
#	157896
#	167640
#	184170
#	197330
#	219346
#	241726
#	261931
#	296960
#	314254
#
# Disc length: 4404 seconds
#
# Revision: 1
# Processed by: cddbd v1.5.2PL0 Copyright (c) Steve Scherf et al.
# Submitted via: audiograbber 1.83.01
#
DISCID=d7113210
DTITLE=Various Artist - Simply The Best Comedy Collection - UK
DYEAR=2006
DGENRE=
TTITLE0=Alan Bennett - Take A Pew
TTITLE1=Peter Sellers - So Little Time
TTITLE2=Peter Cook - T.V.P.M.
TTITLE3=Jasper Carrott - Magazines
TTITLE4=Lenny Henry - Blackpool To Jamaica
TTITLE5=Derek and Clive - Ross McPharter
TTITLE6=Beyond The Fringe - The Great Train Robbery
TTITLE7=Kenneth Cope and David Frost - Stop Press
TTITLE8=Roy Hudd - Bus Driver
TTITLE9=Spike Milligan and Valentine Dyall - Cougher Royale
TTITLE10=Morecambe and Wise - The Ambassador Of Khasiland
TTITLE11=Smith and Jones - V.D.
TTITLE12=Peter Cook and Dudley Moore - One Leg Too Few
TTITLE13=The Goons - Dishonoured (Excerpt)
TTITLE14=Victoria Wood - Hospital Food
TTITLE15=Monty Python - Always Look On The Bright Side Of Life
EXTD=
EXTT0=
EXTT1=
EXTT2=
EXTT3=
EXTT4=
EXTT5=
EXTT6=
EXTT7=
EXTT8=
EXTT9=
EXTT10=
EXTT11=
EXTT12=
EXTT13=
EXTT14=
EXTT15=
PLAYORDER=
